<?xml version="1.0" encoding="utf-8"?>
<!-- Generator: Adobe Illustrator 16.0.0, SVG Export Plug-In . SVG Version: 6.00 Build 0)  -->
<!DOCTYPE svg PUBLIC "-//W3C//DTD SVG 1.1//EN" "http://www.w3.org/Graphics/SVG/1.1/DTD/svg11.dtd">
<svg version="1.1" id="Capa_1" xmlns="http://www.w3.org/2000/svg" xmlns:xlink="http://www.w3.org/1999/xlink" x="0px" y="0px"
	 width="117px" height="40px" viewBox="0 0 117 40" enable-background="new 0 0 117 40" xml:space="preserve">
<g>
	<g>
		<path fill="#211915" d="M25.546,15.081c-1.373-1.205-1.737-2.773-1.737-4.132c0-0.953,0.294-2.605,1.639-3.838
			c1.009-0.925,2.339-1.485,4.426-1.485c0.869,0,1.387,0.056,2.031,0.14c0.532,0.07,0.98,0.196,1.401,0.238
			c0.154,0.014,0.21,0.084,0.21,0.168c0,0.112-0.042,0.28-0.07,0.77c-0.028,0.462-0.014,1.233-0.042,1.513
			c-0.014,0.21-0.042,0.322-0.168,0.322c-0.112,0-0.14-0.112-0.14-0.308C33.083,8.035,32.9,7.545,32.55,7.181
			c-0.462-0.49-1.555-0.869-2.844-0.869c-1.219,0-2.017,0.309-2.633,0.869c-1.022,0.938-1.289,2.269-1.289,3.628
			c0,3.334,2.535,4.987,4.412,4.987c1.247,0,2.003-0.14,2.563-0.785c0.238-0.266,0.42-0.672,0.477-0.924
			c0.042-0.224,0.07-0.28,0.182-0.28c0.098,0,0.126,0.098,0.126,0.21c0,0.168-0.168,1.387-0.308,1.863
			c-0.07,0.238-0.126,0.308-0.364,0.406c-0.561,0.224-1.625,0.322-2.521,0.322C28.432,16.608,26.821,16.188,25.546,15.081z"/>
		<path fill="#211915" d="M42.643,11.285c0.028,0,0.07-0.014,0.07-0.084v-0.252c0-1.807-0.014-2.241-0.028-2.62
			c-0.028-0.406-0.14-0.532-0.533-0.644c-0.098-0.028-0.308-0.042-0.476-0.042c-0.14,0-0.21-0.042-0.21-0.126
			c0-0.084,0.084-0.112,0.266-0.112c0.658,0,1.527,0.028,1.849,0.028c0.294,0,1.106-0.028,1.583-0.028
			c0.182,0,0.266,0.028,0.266,0.112c0,0.084-0.084,0.126-0.224,0.126c-0.098,0-0.21,0.014-0.364,0.042
			c-0.322,0.056-0.42,0.224-0.448,0.644c-0.028,0.378-0.028,0.714-0.028,2.521v2.101c0,1.093,0,2.031,0.056,2.549
			c0.042,0.336,0.112,0.561,0.49,0.617c0.168,0.028,0.434,0.042,0.63,0.042c0.126,0,0.196,0.07,0.196,0.126
			c0,0.084-0.098,0.126-0.252,0.126c-0.798,0-1.611-0.042-1.947-0.042c-0.28,0-1.148,0.042-1.625,0.042
			c-0.168,0-0.266-0.042-0.266-0.126c0-0.056,0.056-0.126,0.196-0.126c0.196,0,0.336-0.014,0.448-0.042
			c0.252-0.056,0.322-0.28,0.364-0.63c0.056-0.504,0.056-1.415,0.056-2.507v-0.911c0-0.042-0.042-0.07-0.07-0.07h-4.65
			c-0.042,0-0.084,0.014-0.084,0.07v0.911c0,1.092,0.014,2.003,0.07,2.521c0.042,0.336,0.112,0.561,0.476,0.617
			c0.168,0.028,0.448,0.042,0.63,0.042c0.14,0,0.196,0.07,0.196,0.126c0,0.084-0.098,0.126-0.252,0.126
			c-0.798,0-1.653-0.042-2.003-0.042c-0.28,0-1.093,0.042-1.583,0.042c-0.154,0-0.238-0.042-0.238-0.126
			c0-0.056,0.042-0.126,0.196-0.126c0.182,0,0.322-0.014,0.434-0.042c0.252-0.056,0.322-0.28,0.364-0.63
			c0.056-0.504,0.056-1.443,0.056-2.536v-2.101c0-1.807,0-2.143-0.014-2.521c-0.028-0.406-0.14-0.532-0.532-0.644
			c-0.098-0.028-0.308-0.042-0.49-0.042c-0.126,0-0.21-0.042-0.21-0.126c0-0.084,0.098-0.112,0.266-0.112
			c0.658,0,1.471,0.028,1.807,0.028c0.294,0,1.148-0.028,1.639-0.028c0.168,0,0.252,0.028,0.252,0.112
			c0,0.084-0.07,0.126-0.224,0.126c-0.098,0-0.21,0.014-0.35,0.042c-0.336,0.056-0.434,0.224-0.462,0.644
			c-0.028,0.378-0.028,0.813-0.028,2.62v0.252c0,0.07,0.042,0.084,0.084,0.084H42.643z"/>
		<path fill="#211915" d="M46.909,11.901c0-2.031,1.429-4.665,5.169-4.665c3.109,0,5.042,1.723,5.042,4.454
			s-1.989,4.875-5.168,4.875C48.366,16.566,46.909,14.016,46.909,11.901z M55.285,12.125c0-2.634-1.583-4.258-3.572-4.258
			c-1.373,0-2.984,0.728-2.984,3.67c0,2.451,1.401,4.384,3.726,4.384C53.324,15.921,55.285,15.515,55.285,12.125z"/>
		<path fill="#211915" d="M61.064,12.952c0,1.527,0,2.283,0.266,2.507c0.211,0.182,0.688,0.252,1.64,0.252
			c0.658,0,1.135-0.014,1.442-0.336c0.154-0.154,0.28-0.49,0.309-0.714c0.014-0.112,0.042-0.182,0.14-0.182
			c0.084,0,0.112,0.126,0.112,0.266s-0.084,1.022-0.183,1.373c-0.084,0.266-0.14,0.322-0.783,0.322
			c-0.884,0-1.598-0.014-2.214-0.042c-0.616-0.014-1.135-0.028-1.639-0.028c-0.141,0-0.406,0.014-0.701,0.014
			c-0.293,0.014-0.602,0.028-0.854,0.028c-0.154,0-0.238-0.042-0.238-0.126c0-0.056,0.042-0.126,0.196-0.126
			c0.182,0,0.322-0.014,0.434-0.042c0.253-0.056,0.322-0.28,0.364-0.63c0.057-0.504,0.057-1.443,0.057-2.536v-2.101
			c0-1.807,0-2.143-0.015-2.521c-0.028-0.406-0.14-0.532-0.532-0.644c-0.098-0.028-0.252-0.042-0.406-0.042
			c-0.14,0-0.21-0.042-0.21-0.126c0-0.084,0.084-0.112,0.266-0.112c0.575,0,1.359,0.028,1.695,0.028
			c0.294,0,1.303-0.028,1.778-0.028c0.183,0,0.268,0.028,0.268,0.112c0,0.084-0.07,0.126-0.225,0.126
			c-0.141,0-0.336,0.014-0.477,0.042c-0.336,0.056-0.434,0.224-0.463,0.644c-0.027,0.378-0.027,0.714-0.027,2.521V12.952z"/>
		<path fill="#211915" d="M67.14,10.851c0-1.807,0-2.143-0.014-2.521c-0.028-0.406-0.154-0.546-0.42-0.63
			c-0.141-0.042-0.295-0.056-0.449-0.056c-0.125,0-0.195-0.028-0.195-0.14c0-0.07,0.098-0.098,0.293-0.098
			c0.463,0,1.303,0.028,1.654,0.028c0.308,0,1.105-0.028,1.582-0.028c0.154,0,0.252,0.028,0.252,0.098c0,0.112-0.07,0.14-0.195,0.14
			c-0.127,0-0.225,0.014-0.365,0.042c-0.336,0.056-0.434,0.224-0.461,0.644c-0.029,0.378-0.029,0.714-0.029,2.521v2.101
			c0,1.149,0,2.101,0.057,2.605c0.042,0.322,0.126,0.504,0.49,0.561c0.168,0.028,0.448,0.042,0.631,0.042
			c0.14,0,0.195,0.07,0.195,0.126c0,0.084-0.098,0.126-0.238,0.126c-0.813,0-1.652-0.042-1.988-0.042
			c-0.281,0-1.121,0.042-1.611,0.042c-0.154,0-0.238-0.042-0.238-0.126c0-0.056,0.043-0.126,0.196-0.126
			c0.183,0,0.322-0.014,0.435-0.042c0.252-0.056,0.322-0.224,0.363-0.575c0.057-0.49,0.057-1.442,0.057-2.591V10.851z"/>
		<path fill="#211915" d="M74.476,8.133l-1.834,0.042c-0.715,0.014-1.009,0.098-1.191,0.364c-0.125,0.168-0.182,0.322-0.209,0.406
			C71.212,9.043,71.185,9.1,71.101,9.1s-0.112-0.07-0.112-0.196c0-0.196,0.238-1.345,0.267-1.443c0.027-0.154,0.07-0.224,0.14-0.224
			c0.099,0,0.224,0.098,0.532,0.14c0.364,0.042,0.826,0.056,1.232,0.056h5.001c0.392,0,0.659-0.028,0.841-0.056
			c0.195-0.028,0.294-0.056,0.336-0.056c0.084,0,0.098,0.07,0.098,0.252c0,0.252-0.027,1.135-0.027,1.443
			c-0.014,0.126-0.043,0.196-0.112,0.196c-0.099,0-0.126-0.056-0.14-0.238l-0.015-0.126c-0.028-0.308-0.351-0.672-1.456-0.687
			L76.13,8.133v4.818c0,1.093,0.014,2.031,0.069,2.549c0.042,0.336,0.112,0.561,0.476,0.617c0.169,0.028,0.449,0.042,0.631,0.042
			c0.141,0,0.196,0.07,0.196,0.126c0,0.084-0.099,0.126-0.238,0.126c-0.813,0-1.639-0.042-1.989-0.042
			c-0.279,0-1.12,0.042-1.61,0.042c-0.154,0-0.238-0.042-0.238-0.126c0-0.056,0.042-0.126,0.196-0.126
			c0.182,0,0.336-0.014,0.434-0.042c0.252-0.056,0.322-0.28,0.365-0.63c0.055-0.504,0.055-1.443,0.055-2.536V8.133z"/>
		<path fill="#211915" d="M81.392,13.4c-0.07,0-0.084,0.014-0.111,0.084l-0.659,1.611c-0.126,0.294-0.183,0.588-0.183,0.729
			c0,0.21,0.113,0.336,0.49,0.336h0.183c0.154,0,0.183,0.056,0.183,0.126c0,0.098-0.07,0.126-0.196,0.126
			c-0.406,0-0.98-0.042-1.373-0.042c-0.126,0-0.784,0.042-1.429,0.042c-0.154,0-0.225-0.028-0.225-0.126
			c0-0.07,0.043-0.126,0.141-0.126c0.112,0,0.252-0.014,0.364-0.014c0.56-0.084,0.771-0.448,1.022-1.051l3.222-7.438
			c0.14-0.336,0.238-0.476,0.364-0.476c0.182,0,0.238,0.112,0.364,0.378c0.294,0.658,2.353,5.477,3.138,7.284
			c0.477,1.079,0.826,1.233,1.051,1.275c0.182,0.028,0.322,0.042,0.462,0.042c0.112,0,0.169,0.042,0.169,0.126
			c0,0.098-0.07,0.126-0.533,0.126c-0.434,0-1.33,0-2.367-0.028c-0.225-0.014-0.364-0.014-0.364-0.098
			c0-0.07,0.028-0.112,0.154-0.126c0.084-0.014,0.168-0.126,0.112-0.266l-0.953-2.41c-0.027-0.07-0.07-0.084-0.126-0.084H81.392z
			 M84.024,12.742c0.057,0,0.07-0.028,0.057-0.07l-1.162-2.983c-0.015-0.042-0.028-0.112-0.057-0.112
			c-0.042,0-0.056,0.07-0.07,0.112l-1.19,2.97c-0.028,0.056,0,0.084,0.042,0.084H84.024z"/>
		<path fill="#211915" d="M88.896,16.257c-0.197-0.084-0.238-0.14-0.238-0.406c0-0.645,0.056-1.387,0.07-1.583
			c0-0.182,0.055-0.308,0.153-0.308c0.112,0,0.126,0.112,0.126,0.196c0,0.154,0.043,0.406,0.112,0.617
			c0.267,0.882,1.19,1.176,1.961,1.176c1.065,0,1.709-0.672,1.709-1.513c0-0.518-0.126-1.037-1.219-1.681l-0.714-0.42
			c-1.457-0.854-1.934-1.653-1.934-2.704c0-1.457,1.4-2.395,3.109-2.395c0.799,0,1.43,0.112,1.752,0.196
			c0.111,0.028,0.168,0.07,0.168,0.154c0,0.154-0.043,0.49-0.043,1.429c0,0.252-0.056,0.378-0.153,0.378
			c-0.085,0-0.126-0.07-0.126-0.21c0-0.112-0.057-0.476-0.322-0.784c-0.182-0.224-0.574-0.561-1.373-0.561
			c-0.883,0-1.681,0.462-1.681,1.275c0,0.532,0.196,0.953,1.303,1.569l0.504,0.28c1.625,0.896,2.13,1.807,2.13,2.885
			c0,0.883-0.337,1.597-1.233,2.228c-0.589,0.42-1.4,0.49-2.06,0.49C90.184,16.566,89.427,16.496,88.896,16.257z"/>
		<path fill="#211915" d="M40.344,26.684c0-2.129,0-2.521-0.028-2.969c-0.028-0.477-0.14-0.701-0.602-0.799
			c-0.112-0.028-0.35-0.042-0.546-0.042c-0.154,0-0.238-0.028-0.238-0.126s0.098-0.127,0.308-0.127c0.743,0,1.625,0.043,2.017,0.043
			c0.435,0,1.317-0.043,2.157-0.043c1.751,0,4.09,0,5.617,1.598c0.7,0.729,1.359,1.891,1.359,3.559c0,1.764-0.743,3.109-1.527,3.908
			c-0.645,0.658-2.101,1.652-4.693,1.652c-0.504,0-1.079-0.043-1.611-0.084c-0.532-0.043-1.022-0.084-1.373-0.084
			c-0.154,0-0.462,0-0.798,0.014c-0.322,0-0.687,0.027-0.967,0.027c-0.182,0-0.28-0.041-0.28-0.139c0-0.07,0.056-0.113,0.224-0.113
			c0.21,0,0.378-0.027,0.504-0.055c0.28-0.057,0.351-0.365,0.406-0.771c0.07-0.588,0.07-1.695,0.07-2.982V26.684z M42.095,28.225
			c0,1.484,0.014,2.564,0.028,2.83c0.014,0.35,0.042,0.91,0.154,1.064c0.182,0.266,0.728,0.561,1.835,0.561
			c1.429,0,2.381-0.281,3.222-1.01c0.896-0.77,1.177-2.045,1.177-3.486c0-1.779-0.743-2.928-1.345-3.502
			c-1.289-1.232-2.886-1.4-3.979-1.4c-0.28,0-0.798,0.041-0.91,0.098c-0.126,0.055-0.168,0.125-0.168,0.279
			c-0.014,0.477-0.014,1.695-0.014,2.803V28.225z"/>
		<path fill="#211915" d="M52.608,27.65c0-1.807,0-2.143-0.014-2.521c-0.028-0.406-0.14-0.531-0.532-0.645
			c-0.098-0.027-0.308-0.041-0.49-0.041c-0.126,0-0.21-0.043-0.21-0.127s0.098-0.111,0.28-0.111c0.644,0,1.429,0.027,1.779,0.027
			c0.392,0,3.124,0.014,3.362,0c0.224-0.014,0.42-0.055,0.518-0.07c0.07-0.014,0.14-0.055,0.196-0.055
			c0.07,0,0.084,0.055,0.084,0.111c0,0.084-0.07,0.225-0.098,0.77c-0.014,0.127-0.042,0.645-0.07,0.785
			c-0.014,0.057-0.042,0.197-0.14,0.197c-0.084,0-0.098-0.057-0.098-0.154c0-0.084-0.014-0.295-0.084-0.436
			c-0.098-0.209-0.196-0.377-0.813-0.434c-0.21-0.027-1.681-0.057-1.933-0.057c-0.056,0-0.084,0.043-0.084,0.113v2.941
			c0,0.07,0.014,0.125,0.084,0.125c0.28,0,1.877,0,2.157-0.027c0.294-0.027,0.462-0.07,0.588-0.182
			c0.098-0.084,0.14-0.154,0.196-0.154c0.056,0,0.098,0.057,0.098,0.125c0,0.07-0.028,0.268-0.098,0.869
			c-0.028,0.238-0.056,0.715-0.056,0.799c0,0.098-0.014,0.266-0.126,0.266c-0.084,0-0.112-0.041-0.112-0.098
			c-0.014-0.127-0.014-0.281-0.042-0.434c-0.07-0.238-0.224-0.422-0.687-0.463c-0.224-0.027-1.625-0.057-1.933-0.057
			c-0.056,0-0.07,0.057-0.07,0.127v0.951c0,0.406-0.014,1.416,0,1.766c0.028,0.813,0.406,0.994,1.667,0.994
			c0.322,0,0.84-0.014,1.163-0.154c0.308-0.139,0.448-0.391,0.532-0.881c0.028-0.127,0.056-0.184,0.14-0.184
			c0.098,0,0.112,0.154,0.112,0.281c0,0.266-0.098,1.078-0.168,1.316c-0.084,0.309-0.196,0.309-0.658,0.309
			c-0.924,0-1.667-0.014-2.269-0.043c-0.603-0.014-1.065-0.027-1.429-0.027c-0.14,0-0.406,0.014-0.7,0.014
			c-0.294,0.014-0.603,0.027-0.854,0.027c-0.154,0-0.238-0.041-0.238-0.125c0-0.057,0.042-0.127,0.196-0.127
			c0.182,0,0.322-0.014,0.434-0.041c0.252-0.057,0.322-0.281,0.364-0.631c0.056-0.504,0.056-1.443,0.056-2.535V27.65z"/>
		<path fill="#211915" d="M60.868,32.076c-1.219-1.021-1.541-2.367-1.541-3.516c0-0.813,0.267-2.213,1.442-3.264
			c0.896-0.783,2.074-1.26,3.909-1.26c0.77,0,1.232,0.055,1.793,0.125c0.461,0.07,0.867,0.154,1.232,0.197
			c0.14,0.014,0.182,0.07,0.182,0.139c0,0.1-0.027,0.238-0.057,0.66c-0.027,0.391-0.027,1.049-0.041,1.287
			c-0.014,0.168-0.057,0.295-0.168,0.295c-0.099,0-0.127-0.098-0.127-0.252c-0.014-0.379-0.168-0.799-0.477-1.107
			c-0.42-0.406-1.246-0.699-2.381-0.699c-1.078,0-1.765,0.195-2.325,0.672c-0.91,0.785-1.135,1.934-1.135,3.096
			c0,2.83,2.186,4.174,3.839,4.174c1.092,0,1.694-0.084,2.185-0.631c0.21-0.236,0.378-0.574,0.421-0.797
			c0.027-0.184,0.056-0.238,0.154-0.238c0.084,0,0.139,0.111,0.139,0.209c0,0.141-0.139,1.178-0.266,1.584
			c-0.056,0.209-0.111,0.266-0.322,0.35c-0.49,0.195-1.429,0.266-2.227,0.266C63.417,33.365,61.988,33.016,60.868,32.076z"/>
		<path fill="#211915" d="M69.196,28.701c0-2.031,1.43-4.664,5.17-4.664c3.109,0,5.042,1.723,5.042,4.453
			c0,2.732-1.989,4.875-5.169,4.875C70.653,33.365,69.196,30.816,69.196,28.701z M77.573,28.926c0-2.635-1.583-4.258-3.572-4.258
			c-1.373,0-2.983,0.727-2.983,3.67c0,2.451,1.401,4.383,3.726,4.383C75.612,32.721,77.573,32.314,77.573,28.926z"/>
	</g>
</g>
<circle fill="#211915" cx="85.765" cy="28.609" r="1.925"/>
<circle fill="#211915" cx="33.738" cy="28.66" r="1.925"/>
<rect x="-60.998" y="-17.059" fill="#FFFFFF" width="31.807" height="67.333"/>
</svg>
