<svg id="icons" enable-background="new 0 0 64 64" height="512" viewBox="0 0 64 64" width="512" xmlns="http://www.w3.org/2000/svg"><path d="m62 12.5h-1.999c0-2.757-2.243-5-5-5h-.001v-1h.001c.553 0 1-.447 1-1s-.447-1-1-1h-2.001c-.553 0-1 .447-1 1s.447 1 1 1v1h-6v-3c0-.553-.447-1-1-1h-12c-.553 0-1 .447-1 1v3h-23-.001-.001c-2.757 0-5 2.243-5 5v18c0 2.757 2.243 5 5 5h3.002v1.994c0 .002-.001.003-.001.005s.001.003.001.005v2.995h-2.586l-.707-.706c-.391-.391-1.023-.391-1.414 0s-.391 1.024 0 1.414l.999.998c.092.093.203.166.326.217.122.051.252.077.382.077h3v.001c0 .553.447 1 1 1s1-.447 1-1v-.001h3c.13 0 .26-.026.382-.077.123-.051.234-.124.326-.217l.999-.998c.391-.39.391-1.023 0-1.414s-1.023-.391-1.414 0l-.707.706h-2.586v-2h1c.553 0 1-.447 1-1s-.447-1-1-1h-1v-.999h3c2.757 0 5-2.243 5-5v-4c0-.552.448-1 1-1h12.999c.552 0 1 .448 1 1v18h-34.999c-1.654 0-3 1.346-3 3v4c0 4.963 4.037 9 9 9h46c2.757 0 5-2.243 5-5v-9.995c0-.002.001-.003.001-.005s-.001-.003-.001-.005v-18.995h2c1.103 0 2-.897 2-2v-10c0-1.103-.897-2-2-2zm-19.382-5 1-2h1.382v2zm-4 0 1-2h1.764l-1 2zm-3.618-2h2.382l-1 2h-1.382zm4.999 21c0-1.654-1.346-3-3-3h-12.999c-1.654 0-3 1.346-3 3v4c0 1.654-1.346 3-3 3h-8.002c-1.654 0-3-1.346-3-3v-18c0-1.654 1.346-3 3-3h.001.001 3v22c0 .553.447 1 1 1s1-.447 1-1v-22h40.001c1.653 0 2.998 1.344 3 2.997 0 .001-.001.002-.001.003v32h-18.001zm15.001 32h-46c-3.859 0-7-3.141-7-7v-4c0-.552.448-1 1-1h55v9c0 1.654-1.346 3-3 3zm5-36c.553 0 1-.447 1-1s-.447-1-1-1v-2c.553 0 1-.447 1-1s-.447-1-1-1v-2h2v10h-2z"/><path d="m49 29.5c-3.309 0-6 2.691-6 6s2.691 6 6 6 6-2.691 6-6-2.691-6-6-6zm0 10c-2.206 0-4-1.794-4-4s1.794-4 4-4 4 1.794 4 4-1.794 4-4 4z"/><path d="m49.02 26.5c-.552 0-.994.447-.994 1s.452 1 1.005 1c.552 0 1-.447 1-1s-.448-1-1-1z"/><path d="m49.03 32.5h-.01c-.552 0-.994.447-.994 1s.452 1 1.005 1c.552 0 1-.447 1-1s-.449-1-1.001-1z"/><path d="m45.02 27.572c-.552 0-.994.447-.994 1s.452 1 1.005 1c.552 0 1-.447 1-1s-.448-1-1-1z"/><path d="m42.102 30.5h-.011c-.552 0-.994.447-.994 1s.452 1 1.005 1c.552 0 1-.447 1-1s-.449-1-1-1z"/><path d="m55.957 30.5h-.011c-.552 0-.994.447-.994 1s.452 1 1.005 1c.552 0 1-.447 1-1s-.448-1-1-1z"/><path d="m53.028 27.572h-.011c-.552 0-.994.447-.994 1s.452 1 1.005 1c.552 0 1-.447 1-1s-.448-1-1-1z"/><path d="m44 19.5h10c.553 0 1-.447 1-1v-5c0-.553-.447-1-1-1h-10c-.553 0-1 .447-1 1v5c0 .553.447 1 1 1zm1-5h8v3h-8z"/><path d="m34 13.5h-6c-1.654 0-3 1.346-3 3s1.346 3 3 3h6c1.654 0 3-1.346 3-3s-1.346-3-3-3zm-6 2c.552 0 1 .448 1 1s-.448 1-1 1-1-.448-1-1 .448-1 1-1zm6 2h-3.185c.112-.314.185-.647.185-1s-.072-.686-.185-1h3.185c.552 0 1 .448 1 1s-.448 1-1 1z"/></svg>